<?xml version="1.0" encoding="UTF-8" standalone="no" ?>
<!DOCTYPE svg PUBLIC "-//W3C//DTD SVG 1.1//EN" "http://www.w3.org/Graphics/SVG/1.1/DTD/svg11.dtd">
<svg xmlns="http://www.w3.org/2000/svg" xmlns:xlink="http://www.w3.org/1999/xlink" version="1.1" width="90" height="90" viewBox="0 0 1080 1080" xml:space="preserve">
<desc>Created with Fabric.js 5.2.4</desc>
<defs>
</defs>
<rect x="0" y="0" width="100%" height="100%" fill="transparent"></rect>
<g transform="matrix(0 0 0 0 0 0)" id="8133098e-70f3-4645-9e6d-d79aaa25e4eb"  >
</g>
<g transform="matrix(1 0 0 1 540 540)" id="2d79b8d4-e1a7-442a-831f-ecc23762c3ac"  >
<rect style="stroke: none; stroke-width: 1; stroke-dasharray: none; stroke-linecap: butt; stroke-dashoffset: 0; stroke-linejoin: miter; stroke-miterlimit: 4; fill: rgb(255,255,255); fill-rule: nonzero; opacity: 1; visibility: hidden;" vector-effect="non-scaling-stroke"  x="-540" y="-540" rx="0" ry="0" width="1080" height="1080" />
</g>
<g transform="matrix(4.84 0 0 4.84 540 540)"  >
<g style="" vector-effect="non-scaling-stroke"   >
		<g transform="matrix(1 0 0 1 -0.38 -14.8)"  >
<polygon style="stroke: none; stroke-width: 1; stroke-dasharray: none; stroke-linecap: butt; stroke-dashoffset: 0; stroke-linejoin: miter; stroke-miterlimit: 4; fill: rgb(174,222,246); fill-rule: nonzero; opacity: 1;" vector-effect="non-scaling-stroke"  points="-27.15,0.46 -3.42,-13.23 27.15,9.71 9.4,13.24 " />
</g>
		<g transform="matrix(1 0 0 1 44.47 -14.78)"  >
<polygon style="stroke: none; stroke-width: 1; stroke-dasharray: none; stroke-linecap: butt; stroke-dashoffset: 0; stroke-linejoin: miter; stroke-miterlimit: 4; fill: rgb(10,56,76); fill-rule: nonzero; opacity: 1;" vector-effect="non-scaling-stroke"  points="-3.49,-15.02 -4,-2.16 28.91,14.67 -28.9,15.03 " />
</g>
		<g transform="matrix(1 0 0 1 0.39 -67.77)"  >
<path style="stroke: none; stroke-width: 1; stroke-dasharray: none; stroke-linecap: butt; stroke-dashoffset: 0; stroke-linejoin: miter; stroke-miterlimit: 4; fill: rgb(10,56,76); fill-rule: nonzero; opacity: 1;" vector-effect="non-scaling-stroke"  transform=" translate(-308.84, -268.43)" d="M 268.65 227.3 C 268.65 227.3 292.45 252.68 302.16999999999996 309.76 L 349.03 289.48 C 349.03 289.49 276.42 223.05 268.65 227.3 z" stroke-linecap="round" />
</g>
		<g transform="matrix(1 0 0 1 17.03 -23.54)"  >
<polyline style="stroke: none; stroke-width: 1; stroke-dasharray: none; stroke-linecap: butt; stroke-dashoffset: 0; stroke-linejoin: miter; stroke-miterlimit: 4; fill: rgb(37,168,221); fill-rule: nonzero; opacity: 1;" vector-effect="non-scaling-stroke"  points="-23.56,-3.3 0.12,23.17 23.56,-23.17 -22.47,-3.3 " />
</g>
		<g transform="matrix(1 0 0 1 5.64 -13.54)"  >
<polygon style="stroke: none; stroke-width: 1; stroke-dasharray: none; stroke-linecap: butt; stroke-dashoffset: 0; stroke-linejoin: miter; stroke-miterlimit: 4; fill: rgb(5,44,38); fill-rule: nonzero; opacity: 1;" vector-effect="non-scaling-stroke"  points="-12.18,-13.86 12.17,13.86 3.09,10.18 " />
</g>
		<g transform="matrix(1 0 0 1 -46.67 -19.64)"  >
<path style="stroke: none; stroke-width: 1; stroke-dasharray: none; stroke-linecap: butt; stroke-dashoffset: 0; stroke-linejoin: miter; stroke-miterlimit: 4; fill: rgb(10,56,76); fill-rule: nonzero; opacity: 1;" vector-effect="non-scaling-stroke"  transform=" translate(-261.76, -316.55)" d="M 290.15 317.9 C 290.15 317.9 257.87 299.82 233.37999999999997 296.59 C 233.37999999999997 296.59 243.04999999999995 306.21999999999997 246.92999999999998 336.52 L 290.15 317.9 z" stroke-linecap="round" />
</g>
		<g transform="matrix(1 0 0 1 -21.94 -9.37)"  >
<polyline style="stroke: none; stroke-width: 1; stroke-dasharray: none; stroke-linecap: butt; stroke-dashoffset: 0; stroke-linejoin: miter; stroke-miterlimit: 4; fill: rgb(26,127,173); fill-rule: nonzero; opacity: 1;" vector-effect="non-scaling-stroke"  points="2.92,-9.62 -39.44,9.62 39.44,9.62 2.31,-9.62 " />
</g>
		<g transform="matrix(1 0 0 1 46.02 -17.02)"  >
<polygon style="stroke: none; stroke-width: 1; stroke-dasharray: none; stroke-linecap: butt; stroke-dashoffset: 0; stroke-linejoin: miter; stroke-miterlimit: 4; fill: none; fill-rule: nonzero; opacity: 1;" vector-effect="non-scaling-stroke"  points="-3.86,-17.31 -3.86,-0.91 28.2,17.31 -28.21,17.31 " />
</g>
		<g transform="matrix(1 0 0 1 28.8 -23.32)"  >
<polygon style="stroke: none; stroke-width: 1; stroke-dasharray: none; stroke-linecap: butt; stroke-dashoffset: 0; stroke-linejoin: miter; stroke-miterlimit: 4; fill: rgb(13,34,45); fill-rule: nonzero; opacity: 1;" vector-effect="non-scaling-stroke"  points="11.78,-23.31 12.17,-6.49 -12.17,23.31 " />
</g>
		<g transform="matrix(1 0 0 1 -0.16 14.8)"  >
<polygon style="stroke: none; stroke-width: 1; stroke-dasharray: none; stroke-linecap: butt; stroke-dashoffset: 0; stroke-linejoin: miter; stroke-miterlimit: 4; fill: rgb(174,222,246); fill-rule: nonzero; opacity: 1;" vector-effect="non-scaling-stroke"  points="-27.15,-0.45 -3.41,13.24 27.16,-9.7 9.41,-13.24 " />
</g>
		<g transform="matrix(1 0 0 1 44.7 14.79)"  >
<polygon style="stroke: none; stroke-width: 1; stroke-dasharray: none; stroke-linecap: butt; stroke-dashoffset: 0; stroke-linejoin: miter; stroke-miterlimit: 4; fill: rgb(10,56,76); fill-rule: nonzero; opacity: 1;" vector-effect="non-scaling-stroke"  points="-3.5,15.02 -4,2.16 28.91,-14.67 -28.9,-15.03 " />
</g>
		<g transform="matrix(1 0 0 1 0.61 67.77)"  >
<path style="stroke: none; stroke-width: 1; stroke-dasharray: none; stroke-linecap: butt; stroke-dashoffset: 0; stroke-linejoin: miter; stroke-miterlimit: 4; fill: rgb(10,56,76); fill-rule: nonzero; opacity: 1;" vector-effect="non-scaling-stroke"  transform=" translate(-309.05, -403.97)" d="M 268.86 445.1 C 268.86 445.1 292.66 419.72 302.38 362.64000000000004 L 349.24 382.9200000000001 C 349.25 382.91 276.64 449.35 268.86 445.1 z" stroke-linecap="round" />
</g>
		<g transform="matrix(1 0 0 1 17.24 23.54)"  >
<polyline style="stroke: none; stroke-width: 1; stroke-dasharray: none; stroke-linecap: butt; stroke-dashoffset: 0; stroke-linejoin: miter; stroke-miterlimit: 4; fill: rgb(37,168,221); fill-rule: nonzero; opacity: 1;" vector-effect="non-scaling-stroke"  points="-23.56,3.3 0.13,-23.17 23.56,23.17 -22.46,3.3 " />
</g>
		<g transform="matrix(1 0 0 1 5.86 13.54)"  >
<polygon style="stroke: none; stroke-width: 1; stroke-dasharray: none; stroke-linecap: butt; stroke-dashoffset: 0; stroke-linejoin: miter; stroke-miterlimit: 4; fill: rgb(5,44,38); fill-rule: nonzero; opacity: 1;" vector-effect="non-scaling-stroke"  points="-12.18,13.86 12.18,-13.86 3.09,-10.18 " />
</g>
		<g transform="matrix(1 0 0 1 -46.46 19.65)"  >
<path style="stroke: none; stroke-width: 1; stroke-dasharray: none; stroke-linecap: butt; stroke-dashoffset: 0; stroke-linejoin: miter; stroke-miterlimit: 4; fill: rgb(10,56,76); fill-rule: nonzero; opacity: 1;" vector-effect="non-scaling-stroke"  transform=" translate(-261.98, -355.85)" d="M 290.36 354.5 C 290.36 354.5 258.08000000000004 372.58 233.59 375.81 C 233.59 375.81 243.26 366.18 247.14000000000001 335.88 L 290.36 354.5 z" stroke-linecap="round" />
</g>
		<g transform="matrix(1 0 0 1 -21.71 9.38)"  >
<polyline style="stroke: none; stroke-width: 1; stroke-dasharray: none; stroke-linecap: butt; stroke-dashoffset: 0; stroke-linejoin: miter; stroke-miterlimit: 4; fill: rgb(26,127,173); fill-rule: nonzero; opacity: 1;" vector-effect="non-scaling-stroke"  points="2.91,9.62 -39.45,-9.62 39.44,-9.62 2.3,9.62 " />
</g>
		<g transform="matrix(1 0 0 1 46.24 17.02)"  >
<polygon style="stroke: none; stroke-width: 1; stroke-dasharray: none; stroke-linecap: butt; stroke-dashoffset: 0; stroke-linejoin: miter; stroke-miterlimit: 4; fill: none; fill-rule: nonzero; opacity: 1;" vector-effect="non-scaling-stroke"  points="-3.86,17.31 -3.86,0.91 28.2,-17.31 -28.2,-17.31 " />
</g>
		<g transform="matrix(1 0 0 1 29.02 23.32)"  >
<polygon style="stroke: none; stroke-width: 1; stroke-dasharray: none; stroke-linecap: butt; stroke-dashoffset: 0; stroke-linejoin: miter; stroke-miterlimit: 4; fill: rgb(13,34,45); fill-rule: nonzero; opacity: 1;" vector-effect="non-scaling-stroke"  points="11.78,23.31 12.16,6.49 -12.17,-23.31 " />
</g>
		<g transform="matrix(1 0 0 1 66.68 0.92)"  >
<path style="stroke: none; stroke-width: 1; stroke-dasharray: none; stroke-linecap: butt; stroke-dashoffset: 0; stroke-linejoin: miter; stroke-miterlimit: 4; fill: rgb(10,56,76); fill-rule: nonzero; opacity: 1;" vector-effect="non-scaling-stroke"  transform=" translate(-375.12, -337.12)" d="M 368.87 333.92 L 382.04 336.02000000000004 C 382.04 336.02000000000004 367.59000000000003 343.52000000000004 368.23 338.72 C 368.87 333.92 368.87 333.92 368.87 333.92 z" stroke-linecap="round" />
</g>
		<g transform="matrix(1 0 0 1 60.02 -0.09)"  >
<path style="stroke: none; stroke-width: 1; stroke-dasharray: none; stroke-linecap: butt; stroke-dashoffset: 0; stroke-linejoin: miter; stroke-miterlimit: 4; fill: rgb(10,56,76); fill-rule: nonzero; opacity: 1;" vector-effect="non-scaling-stroke"  transform=" translate(-368.47, -336.11)" d="M 365.89 335.41 C 366.03999999999996 335.43 366.18 335.45000000000005 366.32 335.46000000000004 C 370.24 335.90000000000003 372.42 335.13000000000005 370.08 335.95000000000005 C 367.65 336.80000000000007 367.65 336.80000000000007 367.65 336.80000000000007 L 366.03999999999996 335.4200000000001" stroke-linecap="round" />
</g>
		<g transform="matrix(1 0 0 1 57.79 0.19)"  >
<path style="stroke: none; stroke-width: 1; stroke-dasharray: none; stroke-linecap: butt; stroke-dashoffset: 0; stroke-linejoin: miter; stroke-miterlimit: 4; fill: rgb(10,56,76); fill-rule: nonzero; opacity: 1;" vector-effect="non-scaling-stroke"  transform=" translate(-366.23, -336.38)" d="M 364.01 335.65 C 368.65999999999997 335.77 368.65999999999997 335.77 368.65999999999997 335.77 L 368.45 337.12 L 363.8 336.8 L 364.01 335.65 z" stroke-linecap="round" />
</g>
		<g transform="matrix(1 0 0 1 53.29 -5.89)"  >
<polygon style="stroke: none; stroke-width: 1; stroke-dasharray: none; stroke-linecap: butt; stroke-dashoffset: 0; stroke-linejoin: miter; stroke-miterlimit: 4; fill: rgb(185,228,246); fill-rule: nonzero; opacity: 1;" vector-effect="non-scaling-stroke"  points="-6.44,-3.16 -4.01,3.16 6.44,3.16 " />
</g>
		<g transform="matrix(1 0 0 1 71.86 1.97)"  >
<polygon style="stroke: none; stroke-width: 1; stroke-dasharray: none; stroke-linecap: butt; stroke-dashoffset: 0; stroke-linejoin: miter; stroke-miterlimit: 4; fill: rgb(10,56,76); fill-rule: nonzero; opacity: 1;" vector-effect="non-scaling-stroke"  points="-1.97,-3.83 2.72,-1.94 3.2,3.83 -3.2,0.32 " />
</g>
		<g transform="matrix(1 0 0 1 53.21 0.35)"  >
<polygon style="stroke: none; stroke-width: 1; stroke-dasharray: none; stroke-linecap: butt; stroke-dashoffset: 0; stroke-linejoin: miter; stroke-miterlimit: 4; fill: rgb(10,56,76); fill-rule: nonzero; opacity: 1;" vector-effect="non-scaling-stroke"  points="-5.68,-1.14 5.68,-1.14 5.64,0.95 -3.61,1.14 -5.61,-1.04 " />
</g>
</g>
</g>
</svg>